<svg width="241" height="357" viewBox="0 0 241 357" fill="none" xmlns="http://www.w3.org/2000/svg">
<path d="M26.5625 165.781H52.9375V0.9375H79.3125V357H52.9375V185.562H26.5625V357H0.1875V0.9375H26.5625V165.781ZM158.438 33.9062C158.438 30.6094 157.957 28.068 156.995 26.2822C156.171 24.4964 154.729 23.1914 152.668 22.3672C150.607 21.543 147.86 21.0622 144.426 20.9248C141.129 20.7874 137.008 20.7188 132.062 20.7188V337.219C137.008 337.219 141.129 337.15 144.426 337.013C147.86 336.875 150.607 336.395 152.668 335.57C154.729 334.746 156.171 333.441 156.995 331.655C157.957 329.869 158.438 327.328 158.438 324.031V33.9062ZM184.812 324.031C184.812 332.273 183.301 338.661 180.279 343.194C177.257 347.59 173.273 350.818 168.328 352.879C163.383 354.939 157.751 356.176 151.432 356.588C145.113 356.863 138.656 357 132.062 357H105.688V0.9375H132.062C138.656 0.9375 145.113 1.14355 151.432 1.55566C157.751 1.8304 163.383 2.99805 168.328 5.05859C173.273 7.11914 177.257 10.416 180.279 14.9492C183.301 19.3451 184.812 25.6641 184.812 33.9062V324.031ZM240.859 0.9375V357H214.484V0.9375H240.859Z" fill="white"/>
<path d="M26.5625 165.781H25.5625V166.781H26.5625V165.781ZM52.9375 165.781V166.781H53.9375V165.781H52.9375ZM52.9375 0.9375V-0.0625H51.9375V0.9375H52.9375ZM79.3125 0.9375H80.3125V-0.0625H79.3125V0.9375ZM79.3125 357V358H80.3125V357H79.3125ZM52.9375 357H51.9375V358H52.9375V357ZM52.9375 185.562H53.9375V184.562H52.9375V185.562ZM26.5625 185.562V184.562H25.5625V185.562H26.5625ZM26.5625 357V358H27.5625V357H26.5625ZM0.1875 357H-0.8125V358H0.1875V357ZM0.1875 0.9375V-0.0625H-0.8125V0.9375H0.1875ZM26.5625 0.9375H27.5625V-0.0625H26.5625V0.9375ZM26.5625 166.781H52.9375V164.781H26.5625V166.781ZM53.9375 165.781V0.9375H51.9375V165.781H53.9375ZM52.9375 1.9375H79.3125V-0.0625H52.9375V1.9375ZM78.3125 0.9375V357H80.3125V0.9375H78.3125ZM79.3125 356H52.9375V358H79.3125V356ZM53.9375 357V185.562H51.9375V357H53.9375ZM52.9375 184.562H26.5625V186.562H52.9375V184.562ZM25.5625 185.562V357H27.5625V185.562H25.5625ZM26.5625 356H0.1875V358H26.5625V356ZM1.1875 357V0.9375H-0.8125V357H1.1875ZM0.1875 1.9375H26.5625V-0.0625H0.1875V1.9375ZM25.5625 0.9375V165.781H27.5625V0.9375H25.5625ZM156.995 26.2822L156.087 26.7013L156.1 26.7292L156.115 26.7563L156.995 26.2822ZM144.426 20.9248L144.384 21.9239L144.386 21.924L144.426 20.9248ZM132.062 20.7188V19.7188H131.062V20.7188H132.062ZM132.062 337.219H131.062V338.219H132.062V337.219ZM144.426 337.013L144.386 336.013L144.384 336.014L144.426 337.013ZM156.995 331.655L156.115 331.181L156.1 331.208L156.087 331.236L156.995 331.655ZM180.279 343.194L181.103 343.761L181.107 343.755L181.111 343.749L180.279 343.194ZM151.432 356.588L151.475 357.587L151.486 357.586L151.497 357.586L151.432 356.588ZM105.688 357H104.688V358H105.688V357ZM105.688 0.9375V-0.0625H104.688V0.9375H105.688ZM151.432 1.55566L151.367 2.55354L151.377 2.55424L151.388 2.55472L151.432 1.55566ZM180.279 14.9492L179.447 15.5039L179.451 15.5099L179.455 15.5157L180.279 14.9492ZM159.438 33.9062C159.438 30.5361 158.95 27.8036 157.876 25.8081L156.115 26.7563C156.963 28.3325 157.438 30.6826 157.438 33.9062H159.438ZM157.903 25.8632C156.958 23.8149 155.304 22.3447 153.039 21.4387L152.297 23.2957C154.153 24.0381 155.384 25.178 156.087 26.7013L157.903 25.8632ZM153.039 21.4387C150.832 20.5556 147.958 20.0653 144.466 19.9256L144.386 21.924C147.762 22.059 150.383 22.5303 152.297 23.2957L153.039 21.4387ZM144.467 19.9257C141.152 19.7875 137.016 19.7188 132.062 19.7188V21.7188C137 21.7188 141.106 21.7874 144.384 21.9239L144.467 19.9257ZM131.062 20.7188V337.219H133.062V20.7188H131.062ZM132.062 338.219C137.016 338.219 141.152 338.15 144.467 338.012L144.384 336.014C141.106 336.15 137 336.219 132.062 336.219V338.219ZM144.466 338.012C147.958 337.872 150.832 337.382 153.039 336.499L152.297 334.642C150.383 335.407 147.762 335.878 144.386 336.013L144.466 338.012ZM153.039 336.499C155.304 335.593 156.958 334.123 157.903 332.074L156.087 331.236C155.384 332.76 154.153 333.899 152.297 334.642L153.039 336.499ZM157.876 332.129C158.95 330.134 159.438 327.401 159.438 324.031H157.438C157.438 327.255 156.963 329.605 156.115 331.181L157.876 332.129ZM159.438 324.031V33.9062H157.438V324.031H159.438ZM183.812 324.031C183.812 332.171 182.317 338.335 179.447 342.64L181.111 343.749C184.286 338.987 185.812 332.376 185.812 324.031H183.812ZM179.455 342.628C176.543 346.864 172.712 349.969 167.944 351.956L168.713 353.802C173.835 351.668 177.972 348.316 181.103 343.761L179.455 342.628ZM167.944 351.956C163.116 353.967 157.595 355.184 151.367 355.59L151.497 357.586C157.906 357.168 163.649 355.912 168.713 353.802L167.944 351.956ZM151.388 355.589C145.084 355.863 138.642 356 132.062 356V358C138.67 358 145.141 357.862 151.475 357.587L151.388 355.589ZM132.062 356H105.688V358H132.062V356ZM106.688 357V0.9375H104.688V357H106.688ZM105.688 1.9375H132.062V-0.0625H105.688V1.9375ZM132.062 1.9375C138.635 1.9375 145.07 2.1429 151.367 2.55354L151.497 0.557785C145.155 0.144211 138.677 -0.0625 132.062 -0.0625V1.9375ZM151.388 2.55472C157.611 2.82526 163.124 3.97362 167.944 5.98167L168.713 4.13551C163.641 2.02248 157.891 0.835541 151.475 0.55661L151.388 2.55472ZM167.944 5.98167C172.703 7.96493 176.533 11.132 179.447 15.5039L181.111 14.3945C177.982 9.70001 173.844 6.27336 168.713 4.13551L167.944 5.98167ZM179.455 15.5157C182.316 19.6767 183.812 25.7638 183.812 33.9062H185.812C185.812 25.5643 184.287 19.0134 181.103 14.3827L179.455 15.5157ZM183.812 33.9062V324.031H185.812V33.9062H183.812ZM240.859 0.9375H241.859V-0.0625H240.859V0.9375ZM240.859 357V358H241.859V357H240.859ZM214.484 357H213.484V358H214.484V357ZM214.484 0.9375V-0.0625H213.484V0.9375H214.484ZM239.859 0.9375V357H241.859V0.9375H239.859ZM240.859 356H214.484V358H240.859V356ZM215.484 357V0.9375H213.484V357H215.484ZM214.484 1.9375H240.859V-0.0625H214.484V1.9375Z" fill="#E71515"/>
</svg>
