<svg width="106" height="37" viewBox="0 0 106 37" fill="none" xmlns="http://www.w3.org/2000/svg">
<path d="M19.1077 25.36C16.7397 23.824 14.5797 22.528 12.6277 21.472C9.90775 26.656 7.68375 31.296 5.95575 35.392L0.339746 30.256C1.93975 26.704 4.00375 22.736 6.53175 18.352L2.73975 16.528L6.00375 10.912L9.84375 12.736C12.7877 7.936 15.4277 4.048 17.7637 1.072L22.9477 5.728C21.6357 7.456 19.3317 10.832 16.0357 15.856C18.0837 17.008 20.1637 18.24 22.2757 19.552C26.9477 11.52 30.7557 5.648 33.6997 1.936L38.8837 6.592C35.1077 11.68 31.4757 17.296 27.9877 23.44L32.0677 26.464L28.3237 31.936L24.9157 29.344C23.5397 32.064 22.4357 34.544 21.6037 36.784L16.0357 31.648C16.8037 29.92 17.8277 27.824 19.1077 25.36ZM35.0662 29.584C37.0822 25.04 38.8582 21.456 40.3942 18.832C42.9542 14.512 45.7222 10.544 48.6982 6.928C46.2342 6.576 44.2342 6.4 42.6982 6.4L44.7622 0.688C48.6022 0.848 52.2982 1.232 55.8502 1.84C59.4022 2.416 62.8742 3.44 66.2662 4.912L69.0982 11.344C67.5622 17.84 64.1542 23.216 58.8742 27.472C54.0102 31.376 48.1222 33.968 41.2102 35.248L35.0662 29.584ZM43.5142 28.096C47.8662 26.848 51.7222 24.704 55.0822 21.664C58.6342 18.464 60.9702 14.736 62.0902 10.48C58.6662 9.04 54.6662 7.936 50.0902 7.168L54.3142 10.624C49.8342 16.288 46.2342 22.112 43.5142 28.096ZM87.6446 21.952C89.3086 24.864 91.7406 28.432 94.9406 32.656L88.5086 36.784C85.4686 32.4 82.6206 27.376 79.9646 21.712C77.9806 25.04 75.5326 29.6 72.6206 35.392L67.3406 30.496C72.2366 21.184 76.8286 13.44 81.1166 7.264C82.5886 5.152 84.1246 3.04 85.7246 0.927999L90.6686 6.016C87.6606 9.76 84.8606 13.744 82.2686 17.968C89.6606 13.456 95.9166 8.8 101.037 4L105.501 9.184C102.525 12.032 99.9646 14.208 97.8206 15.712C94.7166 17.888 91.3246 19.968 87.6446 21.952Z" fill="white"/>
</svg>
