<svg width="131" height="43" viewBox="0 0 131 43" fill="none" xmlns="http://www.w3.org/2000/svg">
<path d="M0.16775 42V0.767999H8.32775V17.28L12.1678 0.767999H20.4718L15.8638 19.632L21.4318 42H12.8878L8.37575 22.032V42H0.16775ZM22.6644 6.864H31.0644V10.752C31.4804 9.376 32.2004 8.32 33.2244 7.584C34.2804 6.816 35.5764 6.432 37.1124 6.432V13.44C35.9284 13.44 34.6164 13.616 33.1764 13.968C31.7684 14.288 31.0644 14.672 31.0644 15.12V42H22.6644V6.864ZM45.5484 42.384C42.8284 42.384 40.9564 41.488 39.9324 39.696C38.9404 37.872 38.4444 35.28 38.4444 31.92C38.4444 29.168 38.7964 27.056 39.5004 25.584C40.2364 24.112 41.2444 23.04 42.5244 22.368C43.8044 21.664 45.7564 20.896 48.3804 20.064L50.6844 19.296V19.2V15.696C50.6844 14.768 50.4924 14.064 50.1084 13.584C49.7564 13.072 49.3244 12.816 48.8124 12.816C48.3644 12.816 47.9644 13.024 47.6124 13.44C47.2924 13.856 47.1324 14.416 47.1324 15.12V17.232H38.9724V16.08C38.9724 12.624 39.7724 10.16 41.3724 8.688C43.0044 7.216 45.6444 6.48 49.2924 6.48C52.2044 6.48 54.5724 7.248 56.3964 8.784C58.2204 10.288 59.1324 12.432 59.1324 15.216V42H50.7804V37.824C50.3644 39.264 49.6924 40.384 48.7644 41.184C47.8684 41.984 46.7964 42.384 45.5484 42.384ZM48.8604 35.856C49.5004 35.856 49.9484 35.6 50.2044 35.088C50.4924 34.544 50.6364 33.888 50.6364 33.12V23.328C49.3884 23.808 48.4604 24.416 47.8524 25.152C47.2764 25.888 46.9884 26.912 46.9884 28.224V32.736C46.9884 34.816 47.6124 35.856 48.8604 35.856ZM62.3675 42V0.527999H70.6715V18.96L74.7035 6.864H83.3915L78.1115 22.128L84.8315 42H75.9035L70.6715 25.44V42H62.3675ZM95.7856 42.384C92.1696 42.384 89.5776 41.392 88.0096 39.408C86.4416 37.424 85.6576 34.464 85.6576 30.528V16.416C85.6576 13.184 86.5856 10.72 88.4416 9.024C90.2976 7.328 92.8896 6.48 96.2176 6.48C102.97 6.48 106.346 9.792 106.346 16.416V18.96C106.346 21.52 106.314 23.6 106.25 25.2H94.0576V32.016C94.0576 33.232 94.1856 34.192 94.4416 34.896C94.6976 35.568 95.2416 35.904 96.0736 35.904C96.7136 35.904 97.1616 35.712 97.4176 35.328C97.7056 34.944 97.8656 34.512 97.8976 34.032C97.9616 33.52 97.9936 32.784 97.9936 31.824V28.416H106.346V30.432C106.346 34.528 105.546 37.552 103.946 39.504C102.378 41.424 99.6576 42.384 95.7856 42.384ZM97.9936 21.024V16.512C97.9936 13.984 97.3696 12.72 96.1216 12.72C94.7136 12.72 94.0096 13.984 94.0096 16.512V21.024H97.9936ZM109.383 6.864H117.783V11.328C118.135 9.888 118.743 8.72 119.607 7.824C120.471 6.928 121.623 6.48 123.063 6.48C125.431 6.48 127.175 7.216 128.295 8.688C129.447 10.128 130.023 12.192 130.023 14.88V42H121.767V15.744C121.767 14.976 121.607 14.32 121.287 13.776C120.999 13.232 120.535 12.96 119.895 12.96C119.031 12.96 118.455 13.36 118.167 14.16C117.911 14.928 117.783 15.968 117.783 17.28V42H109.383V6.864Z" fill="white"/>
</svg>
