<svg width="139" height="36" viewBox="0 0 139 36" fill="none" xmlns="http://www.w3.org/2000/svg">
<path d="M9.92725 27.28C13.2552 27.984 17.5112 28.592 22.6952 29.104L20.6312 35.776C16.2472 35.392 13.0952 35.024 11.1752 34.672C9.28725 34.32 7.79925 34.032 6.71125 33.808L0.951246 28.576C4.85525 20.448 10.5992 11.232 18.1832 0.927999L23.1272 5.92C18.9352 11.68 14.5352 18.8 9.92725 27.28ZM41.452 30.976C38.924 32.96 36.012 34.4 32.716 35.296L26.764 29.776C26.764 27.248 27.148 24.768 27.916 22.336C28.684 19.904 29.82 17.712 31.324 15.76C32.828 13.808 34.684 12.192 36.892 10.912C39.132 9.6 41.708 8.816 44.62 8.56L47.788 13.408C48.172 12.8 48.988 11.744 50.236 10.24L54.94 14.272C51.772 18.4 49.148 22.816 47.068 27.52L46.924 27.616C48.78 27.136 50.956 26.32 53.452 25.168C55.948 23.984 57.532 23.216 58.204 22.864L59.26 27.712C57.372 29.088 54.236 30.864 49.852 33.04C48.124 33.904 46.556 34.592 45.148 35.104L41.452 30.976ZM33.484 28.384C36.908 27.456 40.028 25.184 42.844 21.568C43.676 19.744 44.3 17.472 44.716 14.752C41.42 15.072 38.716 16.528 36.604 19.12C34.524 21.68 33.484 24.768 33.484 28.384ZM63.2541 29.056C71.0941 28.032 77.9101 25.968 83.7021 22.864L84.7581 27.712C79.8301 30.816 74.3581 33.072 68.3421 34.48C66.3261 34.928 64.3421 35.2 62.3901 35.296L56.4381 29.776C56.4381 27.504 56.5821 25.744 56.8701 24.496C58.1181 19.216 61.1741 14.96 66.0381 11.728C68.2141 10.288 70.4221 9.216 72.6621 8.512L80.3421 14.224C80.1821 14.96 79.7341 16.128 78.9981 17.728C77.7821 20.416 76.8221 22.256 76.1181 23.248L70.0701 19.408C71.7981 17.232 72.8861 15.408 73.3341 13.936C70.2621 15.248 67.7661 17.36 65.8461 20.272C64.1181 22.896 63.2541 25.824 63.2541 29.056ZM93.1221 24.736C91.6181 24.736 90.4341 24.624 89.5701 24.4C89.0581 25.648 88.7381 27.2 88.6101 29.056C94.1141 28.736 99.4261 27.504 104.546 25.36C106.274 24.656 107.938 23.824 109.538 22.864L110.546 27.712C107.57 29.6 104.05 31.264 99.9861 32.704C95.6661 34.24 91.5861 35.104 87.7461 35.296L81.7941 29.776C81.7941 25.36 82.9941 21.328 85.3941 17.68C87.1221 15.152 89.0741 13.152 91.2501 11.68C93.4581 10.208 95.5701 9.152 97.5861 8.512L105.698 15.232C104.898 18.56 103.378 20.976 101.138 22.48C98.8981 23.984 96.2261 24.736 93.1221 24.736ZM91.5861 20.08C93.4421 20.08 95.0581 19.568 96.4341 18.544C98.0341 17.328 98.8341 15.632 98.8341 13.456C95.6021 15.216 93.1861 17.424 91.5861 20.08ZM115.782 35.68C113.478 34.144 111.462 32.688 109.734 31.312C108.166 29.936 106.454 28.288 104.598 26.368L109.542 22.864C111.782 25.2 113.43 26.768 114.486 27.568C115.542 28.336 116.486 28.992 117.318 29.536C118.214 29.44 119.67 29.136 121.686 28.624L113.718 21.088C112.982 20.32 112.406 19.632 111.99 19.024C113.206 16.848 115.302 14.592 118.278 12.256C121.062 10.08 123.718 8.624 126.246 7.888L133.926 14.08C133.382 16.256 132.102 19.136 130.086 22.72L124.95 18.88C125.622 17.888 126.214 16.816 126.726 15.664C127.238 14.512 127.542 13.744 127.638 13.36C125.846 14.032 124.006 15.248 122.118 17.008C121.446 17.648 120.838 18.304 120.294 18.976C120.902 19.904 121.83 20.88 123.078 21.904C125.19 23.728 126.966 25.296 128.406 26.608C131.958 25.392 134.966 24.144 137.43 22.864L138.438 27.712C135.878 29.536 132.278 31.232 127.638 32.8C123.35 34.24 119.398 35.2 115.782 35.68Z" fill="white"/>
</svg>
