<svg width="192" height="357" viewBox="0 0 192 357" fill="none" xmlns="http://www.w3.org/2000/svg">
<path d="M72.7188 0.9375H99.0938L105.688 357H79.3125V113.031L59.5312 337.219H46.3438L26.5625 113.031V357H0.1875L6.78125 0.9375H33.1562L52.9375 244.906L72.7188 0.9375ZM191.406 20.7188H158.438V159.188H184.812V178.969H158.438V337.219H191.406V357H132.062V0.9375H191.406V20.7188Z" fill="#D32E34"/>
<path d="M72.7188 0.9375V-0.0625H71.7965L71.722 0.856689L72.7188 0.9375ZM99.0938 0.9375L100.094 0.918991L100.075 -0.0625H99.0938V0.9375ZM105.688 357V358H106.706L106.687 356.981L105.688 357ZM79.3125 357H78.3125V358H79.3125V357ZM79.3125 113.031H80.3125L78.3164 112.943L79.3125 113.031ZM59.5312 337.219V338.219H60.4469L60.5274 337.307L59.5312 337.219ZM46.3438 337.219L45.3476 337.307L45.4281 338.219H46.3438V337.219ZM26.5625 113.031L27.5586 112.943L25.5625 113.031H26.5625ZM26.5625 357V358H27.5625V357H26.5625ZM0.1875 357L-0.812328 356.981L-0.83119 358H0.1875V357ZM6.78125 0.9375V-0.0625H5.7996L5.78142 0.918991L6.78125 0.9375ZM33.1562 0.9375L34.153 0.856689L34.0784 -0.0625H33.1562V0.9375ZM52.9375 244.906L51.9408 244.987H53.9342L52.9375 244.906ZM72.7188 1.9375H99.0938V-0.0625H72.7188V1.9375ZM98.0939 0.956009L104.688 357.019L106.687 356.981L100.094 0.918991L98.0939 0.956009ZM105.688 356H79.3125V358H105.688V356ZM80.3125 357V113.031H78.3125V357H80.3125ZM78.3164 112.943L58.5351 337.131L60.5274 337.307L80.3086 113.119L78.3164 112.943ZM59.5312 336.219H46.3438V338.219H59.5312V336.219ZM47.3399 337.131L27.5586 112.943L25.5664 113.119L45.3476 337.307L47.3399 337.131ZM25.5625 113.031V357H27.5625V113.031H25.5625ZM26.5625 356H0.1875V358H26.5625V356ZM1.18733 357.019L7.78108 0.956009L5.78142 0.918991L-0.812328 356.981L1.18733 357.019ZM6.78125 1.9375H33.1562V-0.0625H6.78125V1.9375ZM32.1595 1.01831L51.9408 244.987L53.9342 244.825L34.153 0.856689L32.1595 1.01831ZM53.9342 244.987L73.7155 1.01831L71.722 0.856689L51.9408 244.825L53.9342 244.987ZM191.406 20.7188V21.7188H192.406V20.7188H191.406ZM158.438 20.7188V19.7188H157.438V20.7188H158.438ZM158.438 159.188H157.438V160.188H158.438V159.188ZM184.812 159.188H185.812V158.188H184.812V159.188ZM184.812 178.969V179.969H185.812V178.969H184.812ZM158.438 178.969V177.969H157.438V178.969H158.438ZM158.438 337.219H157.438V338.219H158.438V337.219ZM191.406 337.219H192.406V336.219H191.406V337.219ZM191.406 357V358H192.406V357H191.406ZM132.062 357H131.062V358H132.062V357ZM132.062 0.9375V-0.0625H131.062V0.9375H132.062ZM191.406 0.9375H192.406V-0.0625H191.406V0.9375ZM191.406 19.7188H158.438V21.7188H191.406V19.7188ZM157.438 20.7188V159.188H159.438V20.7188H157.438ZM158.438 160.188H184.812V158.188H158.438V160.188ZM183.812 159.188V178.969H185.812V159.188H183.812ZM184.812 177.969H158.438V179.969H184.812V177.969ZM157.438 178.969V337.219H159.438V178.969H157.438ZM158.438 338.219H191.406V336.219H158.438V338.219ZM190.406 337.219V357H192.406V337.219H190.406ZM191.406 356H132.062V358H191.406V356ZM133.062 357V0.9375H131.062V357H133.062ZM132.062 1.9375H191.406V-0.0625H132.062V1.9375ZM190.406 0.9375V20.7188H192.406V0.9375H190.406Z" fill="white"/>
</svg>
