<svg width="185" height="51" viewBox="0 0 185 51" fill="none" xmlns="http://www.w3.org/2000/svg">
<path d="M23.1641 30.48C23.1641 31.8933 22.8308 33.2267 22.1641 34.48C21.4975 35.7333 20.4308 36.76 18.9641 37.56C17.4975 38.3333 15.6175 38.72 13.3241 38.72H8.28412V50H3.72412V22.2H13.3241C15.4575 22.2 17.2575 22.5733 18.7241 23.32C20.2175 24.04 21.3241 25.0267 22.0441 26.28C22.7908 27.5333 23.1641 28.9333 23.1641 30.48ZM13.3241 35C15.0575 35 16.3508 34.6133 17.2041 33.84C18.0575 33.04 18.4841 31.92 18.4841 30.48C18.4841 27.44 16.7641 25.92 13.3241 25.92H8.28412V35H13.3241ZM37.0732 50.36C34.9932 50.36 33.1132 49.8933 31.4332 48.96C29.7532 48 28.4332 46.6667 27.4732 44.96C26.5132 43.2267 26.0332 41.2267 26.0332 38.96C26.0332 36.72 26.5265 34.7333 27.5132 33C28.4999 31.2667 29.8465 29.9333 31.5532 29C33.2599 28.0667 35.1665 27.6 37.2732 27.6C39.3799 27.6 41.2865 28.0667 42.9932 29C44.6999 29.9333 46.0465 31.2667 47.0332 33C48.0199 34.7333 48.5132 36.72 48.5132 38.96C48.5132 41.2 48.0065 43.1867 46.9932 44.92C45.9799 46.6533 44.5932 48 42.8332 48.96C41.0999 49.8933 39.1799 50.36 37.0732 50.36ZM37.0732 46.4C38.2465 46.4 39.3399 46.12 40.3532 45.56C41.3932 45 42.2332 44.16 42.8732 43.04C43.5132 41.92 43.8332 40.56 43.8332 38.96C43.8332 37.36 43.5265 36.0133 42.9132 34.92C42.2999 33.8 41.4865 32.96 40.4732 32.4C39.4599 31.84 38.3665 31.56 37.1932 31.56C36.0199 31.56 34.9265 31.84 33.9132 32.4C32.9265 32.96 32.1399 33.8 31.5532 34.92C30.9665 36.0133 30.6732 37.36 30.6732 38.96C30.6732 41.3333 31.2732 43.1733 32.4732 44.48C33.6999 45.76 35.2332 46.4 37.0732 46.4ZM57.581 31.16C58.2477 30.04 59.1277 29.1733 60.221 28.56C61.341 27.92 62.661 27.6 64.181 27.6V32.32H63.021C61.2343 32.32 59.8743 32.7733 58.941 33.68C58.0343 34.5867 57.581 36.16 57.581 38.4V50H53.021V27.96H57.581V31.16ZM66.8526 38.96C66.8526 36.6933 67.3059 34.7067 68.2126 33C69.1459 31.2667 70.4259 29.9333 72.0526 29C73.6792 28.0667 75.5459 27.6 77.6526 27.6C80.3192 27.6 82.5192 28.24 84.2526 29.52C86.0126 30.7733 87.1992 32.5733 87.8126 34.92H82.8926C82.4926 33.8267 81.8526 32.9733 80.9726 32.36C80.0926 31.7467 78.9859 31.44 77.6526 31.44C75.7859 31.44 74.2926 32.1067 73.1726 33.44C72.0792 34.7467 71.5326 36.5867 71.5326 38.96C71.5326 41.3333 72.0792 43.1867 73.1726 44.52C74.2926 45.8533 75.7859 46.52 77.6526 46.52C80.2926 46.52 82.0392 45.36 82.8926 43.04H87.8126C87.1726 45.28 85.9726 47.0667 84.2126 48.4C82.4526 49.7067 80.2659 50.36 77.6526 50.36C75.5459 50.36 73.6792 49.8933 72.0526 48.96C70.4259 48 69.1459 46.6667 68.2126 44.96C67.3059 43.2267 66.8526 41.2267 66.8526 38.96ZM104.277 44.2V50H100.797C98.3169 50 96.3836 49.4 94.9969 48.2C93.6103 46.9733 92.9169 44.9867 92.9169 42.24V33.36H90.1969V27.68H92.9169V22.24H99.7569V27.68H104.237V33.36H99.7569V42.32C99.7569 42.9867 99.9169 43.4667 100.237 43.76C100.557 44.0533 101.09 44.2 101.837 44.2H104.277ZM111.527 25.36C110.327 25.36 109.34 25.0133 108.567 24.32C107.82 23.6 107.447 22.72 107.447 21.68C107.447 20.6133 107.82 19.7333 108.567 19.04C109.34 18.32 110.327 17.96 111.527 17.96C112.7 17.96 113.66 18.32 114.407 19.04C115.18 19.7333 115.567 20.6133 115.567 21.68C115.567 22.72 115.18 23.6 114.407 24.32C113.66 25.0133 112.7 25.36 111.527 25.36ZM114.927 27.68V50H108.087V27.68H114.927ZM148.364 27.44C151.137 27.44 153.337 28.28 154.964 29.96C156.617 31.64 157.444 33.9733 157.444 36.96V50H150.644V37.88C150.644 36.44 150.257 35.3333 149.484 34.56C148.737 33.76 147.697 33.36 146.364 33.36C145.03 33.36 143.977 33.76 143.204 34.56C142.457 35.3333 142.084 36.44 142.084 37.88V50H135.284V37.88C135.284 36.44 134.897 35.3333 134.124 34.56C133.377 33.76 132.337 33.36 131.004 33.36C129.67 33.36 128.617 33.76 127.844 34.56C127.097 35.3333 126.724 36.44 126.724 37.88V50H119.884V27.68H126.724V30.48C127.417 29.5467 128.324 28.8133 129.444 28.28C130.564 27.72 131.83 27.44 133.244 27.44C134.924 27.44 136.417 27.8 137.724 28.52C139.057 29.24 140.097 30.2667 140.844 31.6C141.617 30.3733 142.67 29.3733 144.004 28.6C145.337 27.8267 146.79 27.44 148.364 27.44ZM183.268 38.48C183.268 39.12 183.228 39.7867 183.148 40.48H167.668C167.774 41.8667 168.214 42.9333 168.988 43.68C169.788 44.4 170.761 44.76 171.908 44.76C173.614 44.76 174.801 44.04 175.468 42.6H182.748C182.374 44.0667 181.694 45.3867 180.708 46.56C179.748 47.7333 178.534 48.6533 177.068 49.32C175.601 49.9867 173.961 50.32 172.148 50.32C169.961 50.32 168.014 49.8533 166.308 48.92C164.601 47.9867 163.268 46.6533 162.308 44.92C161.348 43.1867 160.868 41.16 160.868 38.84C160.868 36.52 161.334 34.4933 162.268 32.76C163.228 31.0267 164.561 29.6933 166.268 28.76C167.974 27.8267 169.934 27.36 172.148 27.36C174.308 27.36 176.228 27.8133 177.908 28.72C179.588 29.6267 180.894 30.92 181.828 32.6C182.788 34.28 183.268 36.24 183.268 38.48ZM176.268 36.68C176.268 35.5067 175.868 34.5733 175.068 33.88C174.268 33.1867 173.268 32.84 172.068 32.84C170.921 32.84 169.948 33.1733 169.148 33.84C168.374 34.5067 167.894 35.4533 167.708 36.68H176.268Z" fill="white"/>
<circle cx="50.5601" cy="9" r="9" fill="white"/>
<circle cx="92.5601" cy="9" r="9" fill="white"/>
<circle cx="134.56" cy="9" r="9" fill="white"/>
</svg>
