<svg width="112" height="30" viewBox="0 0 112 30" fill="none" xmlns="http://www.w3.org/2000/svg">
<path d="M4.65568 5H0.0556836V0.999998H13.6557V5H9.05568V29H4.65568V5ZM15.786 0.999998H22.306C24.5727 0.999998 26.226 1.53333 27.266 2.6C28.306 3.64 28.826 5.25333 28.826 7.44V9.16C28.826 12.0667 27.866 13.9067 25.946 14.68V14.76C27.0127 15.08 27.7593 15.7333 28.186 16.72C28.6393 17.7067 28.866 19.0267 28.866 20.68V25.6C28.866 26.4 28.8927 27.0533 28.946 27.56C28.9993 28.04 29.1327 28.52 29.346 29H24.866C24.706 28.5467 24.5993 28.12 24.546 27.72C24.4927 27.32 24.466 26.6 24.466 25.56V20.44C24.466 19.16 24.2527 18.2667 23.826 17.76C23.426 17.2533 22.7193 17 21.706 17H20.186V29H15.786V0.999998ZM21.786 13C22.666 13 23.3193 12.7733 23.746 12.32C24.1993 11.8667 24.426 11.1067 24.426 10.04V7.88C24.426 6.86667 24.2393 6.13333 23.866 5.68C23.5193 5.22667 22.9593 5 22.186 5H20.186V13H21.786ZM31.9188 0.999998H43.9188V5H36.3188V12.4H42.3588V16.4H36.3188V25H43.9188V29H31.9188V0.999998ZM45.8101 13H54.6101V17H45.8101V13ZM57.2313 0.999998H61.6313V12.8L67.2313 0.999998H71.6313L66.3913 11.28L71.7113 29H67.1113L63.3913 16.52L61.6313 20.08V29H57.2313V0.999998ZM73.7938 0.999998H78.1938V29H73.7938V0.999998ZM81.4891 0.999998H87.0091L91.2891 17.76H91.3691V0.999998H95.2891V29H90.7691L85.4891 8.56H85.4091V29H81.4891V0.999998ZM104.799 29.4C102.666 29.4 101.039 28.8 99.9194 27.6C98.7994 26.3733 98.2394 24.6267 98.2394 22.36V7.64C98.2394 5.37333 98.7994 3.64 99.9194 2.44C101.039 1.21333 102.666 0.599998 104.799 0.599998C106.933 0.599998 108.559 1.21333 109.679 2.44C110.799 3.64 111.359 5.37333 111.359 7.64V10.04H107.199V7.36C107.199 5.52 106.439 4.6 104.919 4.6C103.399 4.6 102.639 5.52 102.639 7.36V22.68C102.639 24.4933 103.399 25.4 104.919 25.4C106.439 25.4 107.199 24.4933 107.199 22.68V17.2H104.999V13.2H111.359V22.36C111.359 24.6267 110.799 26.3733 109.679 27.6C108.559 28.8 106.933 29.4 104.799 29.4Z" fill="white"/>
</svg>
